<svg width="408" height="399" viewBox="0 0 408 399" fill="none" xmlns="http://www.w3.org/2000/svg">
<path d="M108.215 290.932V398.814H78.7934V320.354H68.9854V398.814H39.564V320.354H29.756V398.814H0.333374V290.932H108.215Z" fill="#FFC426"/>
<path d="M153.55 320.354H143.742V330.162H153.55V320.354ZM182.972 290.932V398.813H153.55V359.584H143.743V398.813H114.32V290.932H182.972Z" fill="#FFC426"/>
<path d="M257.73 290.932V320.354H218.501V369.391H228.309V330.162H257.73V398.814H189.078V290.932H257.73Z" fill="#FFC426"/>
<path d="M332.488 290.932V398.814H263.836V369.391H303.065V359.583H263.836V330.162H303.065V320.354H263.836V290.932H332.488Z" fill="#FF9C1A"/>
<path d="M407.245 290.932V320.354H368.016V330.162H407.245V398.814H338.594V369.391H377.823V359.583H338.594V290.932H407.245Z" fill="#FFC426"/>
<path d="M315.461 208.314C315.66 208.442 315.72 208.706 315.593 208.905C315.557 208.962 315.508 209.01 315.448 209.043C313.946 209.925 312.438 210.827 310.925 211.751C308.986 212.938 307.356 213.913 306.033 214.673C274.909 232.638 243.781 250.595 212.648 268.543C211.049 269.465 209.472 270.403 207.918 271.362C207.481 271.631 207.262 271.509 207.262 270.993L207.258 210.61C207.258 210.455 207.34 210.313 207.473 210.237C220.809 202.498 234.16 194.785 247.525 187.095C251.91 184.571 258.094 181.457 263.14 178.273C263.282 178.183 263.462 178.183 263.604 178.273C268.19 181.221 274.014 184.126 277.752 186.271C287.212 191.698 296.661 197.149 306.098 202.625C309.198 204.423 312.32 206.321 315.461 208.314ZM148.638 241.669C130.336 231.123 112.062 220.527 93.8196 209.881C93.1823 209.509 92.7503 209.245 92.5236 209.09C91.9783 208.719 91.989 208.366 92.5583 208.031C105.237 200.647 117.672 193.461 129.861 186.473C133.83 184.194 139.636 181.267 144.381 178.371C144.518 178.287 144.69 178.285 144.828 178.367C149.93 181.453 155.869 184.465 160.378 187.061C174.081 194.947 187.596 202.745 200.92 210.451C201.053 210.527 201.134 210.669 201.134 210.819L201.152 271.186C201.153 271.423 200.961 271.617 200.725 271.617C200.649 271.618 200.574 271.598 200.508 271.559C183.246 261.607 165.957 251.643 148.638 241.669ZM148.265 173.114C148.13 173.038 148.046 172.895 148.046 172.741V112.306C148.048 112.069 148.241 111.878 148.478 111.879C148.552 111.881 148.625 111.899 148.689 111.937L200.782 141.987C200.913 142.065 200.994 142.203 200.997 142.353C201.316 160.401 201.38 178.586 201.045 196.638C201.008 198.583 201.048 200.522 201.165 202.453C201.2 202.985 200.986 203.118 200.525 202.851C190.061 196.83 179.604 190.801 169.153 184.765C167.75 183.954 165.974 183.221 164.524 182.379C159.245 179.326 153.826 176.238 148.265 173.114ZM207.262 142.185C207.262 142.03 207.344 141.889 207.477 141.811L259.729 111.667C259.934 111.549 260.197 111.619 260.316 111.823C260.353 111.89 260.373 111.965 260.373 112.041L260.36 172.359C260.36 172.511 260.282 172.651 260.154 172.729C252.096 177.577 243.83 181.958 235.682 186.61C226.405 191.911 217.146 197.243 207.906 202.607C207.477 202.855 207.262 202.731 207.262 202.234V142.185ZM267.076 173.222C267.029 173.199 266.985 173.171 266.942 173.141C266.853 173.075 266.801 172.973 266.801 172.862V107.814C266.801 107.662 266.882 107.521 267.016 107.445C282.42 98.5872 298.065 89.9499 313.2 80.6725C314.998 79.5685 316.816 78.4952 318.649 77.4539C318.852 77.3352 319.113 77.4059 319.23 77.6112C319.269 77.6765 319.289 77.7512 319.289 77.8272L319.262 202.333C319.26 202.838 319.042 202.962 318.61 202.701C308.376 196.565 298.065 190.559 287.681 184.683C285.772 183.602 283.313 182.447 281.228 181.229C276.546 178.494 271.83 175.825 267.076 173.222ZM88.409 77.6179C88.409 77.0992 88.6276 76.9779 89.065 77.2525C91.5023 78.7712 93.969 80.2579 96.4636 81.7112C111.382 90.3899 126.328 99.0272 141.301 107.621C141.433 107.697 141.514 107.839 141.516 107.994L141.498 172.553C141.497 172.706 141.414 172.849 141.28 172.926C135.432 176.221 129.612 179.549 123.818 182.907C122.917 183.43 121.694 183.873 120.63 184.482C108.653 191.322 98.1236 197.431 89.0436 202.813C88.6116 203.07 88.3956 202.947 88.3956 202.443L88.409 77.6179ZM157.56 109.693C155.585 108.549 153.606 107.413 151.621 106.286C151.185 106.039 151.184 105.791 151.616 105.539C168.037 96.0792 184.464 86.5992 200.898 77.1019C201.812 76.5765 202.685 75.9925 203.521 75.3512C203.658 75.2445 203.846 75.2312 203.997 75.3179L256.33 105.539C256.76 105.785 256.76 106.033 256.33 106.282L204.053 136.457C203.916 136.535 203.745 136.531 203.61 136.447C188.541 127.145 172.9 118.571 157.56 109.693ZM315.53 71.1939C315.732 71.3179 315.794 71.5819 315.67 71.7832C315.634 71.8432 315.585 71.8925 315.525 71.9272C313.122 73.3605 310.704 74.7872 308.269 76.2059C293.385 84.8645 278.484 93.4992 263.565 102.111C263.433 102.187 263.269 102.187 263.136 102.111L207.477 69.9872C207.344 69.9112 207.262 69.7712 207.262 69.6192L207.258 9.59519C207.257 9.35919 207.449 9.16586 207.685 9.16453C207.761 9.16453 207.836 9.18452 207.902 9.22186C235.902 25.3712 263.892 41.5165 291.869 57.6592C296.525 60.3499 301.704 63.0112 305.596 65.2765C308.92 67.2099 312.232 69.1819 315.53 71.1939ZM92.413 71.9232C92.217 71.7939 92.1636 71.5299 92.2943 71.3325C92.321 71.2925 92.353 71.2565 92.3916 71.2285C92.6223 71.0499 92.8663 70.8619 93.121 70.6619C93.4263 70.4272 93.7463 70.2165 94.077 70.0312C103.298 64.8552 112.177 59.9299 121.897 54.3205C148.029 39.2392 174.232 24.1245 200.504 8.97786C200.709 8.85919 200.972 8.92985 201.09 9.13519C201.128 9.20052 201.148 9.27519 201.148 9.35119V69.3659C201.148 69.5205 201.065 69.6619 200.933 69.7392L144.81 102.111C144.676 102.187 144.51 102.187 144.377 102.111C128.861 93.1419 113.333 84.1979 97.7929 75.2792C96.0689 74.2859 94.2743 73.1672 92.413 71.9232Z" fill="white"/>
<path d="M325.674 71.386C325.674 70.2847 325.318 69.53 324.606 69.1207C286.071 46.998 206.447 1.02866 205.048 0.296663C204.259 -0.115337 203.478 -0.0979906 202.706 0.347343C201.25 1.18734 89.6082 65.386 84.0615 68.7207C83.4842 69.0687 83.0629 69.4033 82.7575 69.7633C82.1469 70.3207 81.8882 70.9767 81.8882 72.0527C81.8842 106.491 81.8975 199.039 81.9042 200.082C81.9055 203.169 81.9042 206.254 81.9055 209.341C81.9055 210.442 82.2615 211.197 82.9735 211.606C121.508 233.729 201.132 279.698 202.531 280.43C203.32 280.842 204.102 280.825 204.874 280.379C206.33 279.539 271.755 241.817 302.991 223.799C304.203 223.101 305.418 222.39 306.635 221.675C311.954 218.635 317.971 215.341 323.518 212.006C324.096 211.658 324.516 211.323 324.822 210.963C325.432 210.406 325.691 209.75 325.691 208.674C325.695 174.246 325.687 139.819 325.678 105.391C325.683 98.1847 325.675 74.4687 325.674 71.386Z" fill="white"/>
<path d="M97.7936 75.2785C113.332 84.1985 128.86 93.1425 144.378 102.11C144.511 102.188 144.676 102.188 144.811 102.11L200.934 69.7385C201.066 69.6625 201.147 69.5198 201.148 69.3651V9.35046C201.148 9.27446 201.128 9.19979 201.09 9.13446C200.972 8.92912 200.71 8.85846 200.504 8.97713C174.231 24.1251 148.028 39.2398 121.896 54.3211C112.178 59.9291 103.299 64.8558 94.0776 70.0305C93.7456 70.2171 93.427 70.4265 93.1203 70.6611C92.8656 70.8611 92.623 71.0505 92.391 71.2278C92.3536 71.2571 92.3203 71.2918 92.295 71.3318C92.163 71.5291 92.2163 71.7945 92.4123 71.9225C94.275 73.1678 96.0683 74.2865 97.7936 75.2785Z" fill="#FFC426"/>
<path d="M207.477 69.9877L263.136 102.11C263.269 102.188 263.433 102.188 263.565 102.11C278.484 93.4997 293.385 84.865 308.269 76.205C310.704 74.7863 313.122 73.3597 315.525 71.9277C315.585 71.8917 315.634 71.8423 315.67 71.7837C315.794 71.5823 315.732 71.317 315.53 71.193C312.232 69.1823 308.92 67.2103 305.596 65.2757C301.704 63.0103 296.525 60.3503 291.869 57.6597C263.892 41.517 235.902 25.3703 207.902 9.22234C207.836 9.18367 207.761 9.165 207.685 9.165C207.449 9.165 207.257 9.35834 207.258 9.59568L207.262 69.6183C207.262 69.7703 207.345 69.9117 207.477 69.9877Z" fill="#FFC426"/>
<path d="M318.649 77.454C316.816 78.4954 314.999 79.5687 313.2 80.6727C298.065 89.95 282.42 98.5874 267.015 107.445C266.883 107.521 266.801 107.661 266.801 107.813V172.861C266.801 172.971 266.853 173.075 266.943 173.139C266.985 173.171 267.029 173.198 267.075 173.222C271.829 175.825 276.547 178.494 281.227 181.229C283.312 182.447 285.771 183.602 287.681 184.683C298.065 190.559 308.375 196.565 318.611 202.701C319.043 202.961 319.26 202.838 319.263 202.331L319.289 77.8274C319.288 77.7514 319.268 77.6767 319.231 77.6114C319.112 77.406 318.852 77.3354 318.649 77.454Z" fill="#AA5100"/>
<path d="M306.098 202.624C296.661 197.148 287.211 191.697 277.751 186.27C274.014 184.125 268.191 181.22 263.603 178.272C263.462 178.182 263.282 178.182 263.141 178.272C258.094 181.456 251.91 184.572 247.525 187.094C234.161 194.784 220.809 202.498 207.473 210.236C207.339 210.313 207.258 210.454 207.258 210.609L207.262 270.993C207.262 271.508 207.481 271.63 207.919 271.362C209.473 270.404 211.049 269.464 212.647 268.542C243.781 250.594 274.909 232.638 306.034 214.673C307.355 213.912 308.986 212.938 310.925 211.75C312.439 210.826 313.946 209.924 315.449 209.044C315.507 209.009 315.557 208.961 315.594 208.904C315.719 208.706 315.661 208.441 315.461 208.313C312.321 206.32 309.199 204.424 306.098 202.624Z" fill="#AA5100"/>
<path d="M200.92 210.451C187.595 202.744 174.082 194.947 160.379 187.06C155.868 184.464 149.93 181.452 144.828 178.367C144.691 178.285 144.519 178.287 144.382 178.371C139.635 181.268 133.83 184.193 129.86 186.472C117.671 193.461 105.238 200.647 92.5589 208.031C91.9896 208.365 91.9776 208.719 92.5243 209.091C92.7496 209.245 93.1816 209.508 93.8203 209.88C112.063 220.528 130.335 231.124 148.638 241.668C165.956 251.643 183.247 261.607 200.508 271.56C200.574 271.597 200.648 271.617 200.724 271.617C200.962 271.616 201.152 271.423 201.152 271.187L201.135 210.82C201.135 210.668 201.052 210.527 200.92 210.451Z" fill="#FF9C1A"/>
<path d="M120.631 184.481C121.695 183.872 122.917 183.429 123.819 182.907C129.612 179.548 135.432 176.221 141.279 172.925C141.415 172.848 141.497 172.707 141.499 172.552L141.515 107.993C141.515 107.839 141.433 107.697 141.301 107.62C126.328 99.0267 111.383 90.3907 96.4639 81.7107C93.9692 80.2574 91.5025 78.7721 89.0652 77.2521C88.6279 76.9774 88.4092 77.0987 88.4092 77.6174L88.3959 202.444C88.3959 202.947 88.6119 203.071 89.0439 202.812C98.1239 197.432 108.653 191.321 120.631 184.481Z" fill="#FF9C1A"/>
<path d="M200.899 77.1023C184.464 86.5996 168.036 96.0783 151.616 105.54C151.184 105.79 151.186 106.04 151.62 106.285C153.606 107.413 155.586 108.549 157.559 109.693C172.9 118.57 188.54 127.144 203.611 136.448C203.746 136.532 203.915 136.536 204.052 136.456L256.331 106.281C256.76 106.033 256.76 105.785 256.331 105.54L203.998 75.3169C203.847 75.2316 203.659 75.2449 203.52 75.3516C202.686 75.9916 201.811 76.5756 200.899 77.1023Z" fill="#FFC426"/>
<path d="M200.998 142.352C200.995 142.202 200.914 142.064 200.783 141.986L148.69 111.937C148.626 111.9 148.552 111.88 148.478 111.88C148.24 111.878 148.047 112.069 148.046 112.306V172.741C148.047 172.894 148.13 173.037 148.266 173.114C153.826 176.238 159.246 179.326 164.524 182.378C165.974 183.22 167.751 183.953 169.154 184.765C179.604 190.801 190.062 196.829 200.526 202.852C200.986 203.117 201.199 202.984 201.164 202.452C201.048 200.521 201.007 198.584 201.044 196.637C201.379 178.585 201.315 160.4 200.998 142.352Z" fill="#FF9C1A"/>
<path d="M235.682 186.61C243.83 181.958 252.095 177.576 260.154 172.728C260.282 172.651 260.359 172.511 260.359 172.359L260.373 112.04C260.373 111.964 260.353 111.89 260.315 111.824C260.197 111.619 259.934 111.548 259.729 111.667L207.477 141.811C207.345 141.888 207.262 142.03 207.262 142.184V202.234C207.262 202.731 207.477 202.855 207.906 202.607C217.146 197.243 226.405 191.911 235.682 186.61Z" fill="#AA5100"/>
</svg>
