<svg width="45" height="45" viewBox="0 0 45 45" fill="none" xmlns="http://www.w3.org/2000/svg">
<g clip-path="url(#clip0_2809_4253)">
<path d="M28.1905 0H16.7547C16.2494 0 15.8398 0.403954 15.8398 0.902256V12.1805C15.8398 12.6788 16.2494 13.0827 16.7547 13.0827H28.1905C28.6958 13.0827 29.1054 12.6788 29.1054 12.1805V0.902256C29.1054 0.403954 28.6958 0 28.1905 0Z" fill="white"/>
<path d="M44.0265 0H32.5906C32.0854 0 31.6758 0.403954 31.6758 0.902256V12.1805C31.6758 12.6788 32.0854 13.0827 32.5906 13.0827H44.0265C44.5317 13.0827 44.9413 12.6788 44.9413 12.1805V0.902256C44.9413 0.403954 44.5317 0 44.0265 0Z" fill="white"/>
<path d="M12.3507 16.127H0.914866C0.4096 16.127 0 16.5309 0 17.0292V28.3074C0 28.8057 0.4096 29.2097 0.914866 29.2097H12.3507C12.856 29.2097 13.2656 28.8057 13.2656 28.3074V17.0292C13.2656 16.5309 12.856 16.127 12.3507 16.127Z" fill="white"/>
<path d="M44.0265 16.127H32.5906C32.0854 16.127 31.6758 16.5309 31.6758 17.0292V28.3074C31.6758 28.8057 32.0854 29.2097 32.5906 29.2097H44.0265C44.5317 29.2097 44.9413 28.8057 44.9413 28.3074V17.0292C44.9413 16.5309 44.5317 16.127 44.0265 16.127Z" fill="white"/>
<path d="M12.3507 31.8613H0.914866C0.4096 31.8613 0 32.2653 0 32.7636V44.0418C0 44.5401 0.4096 44.944 0.914866 44.944H12.3507C12.856 44.944 13.2656 44.5401 13.2656 44.0418V32.7636C13.2656 32.2653 12.856 31.8613 12.3507 31.8613Z" fill="white"/>
<path d="M28.1905 31.8613H16.7547C16.2494 31.8613 15.8398 32.2653 15.8398 32.7636V44.0418C15.8398 44.5401 16.2494 44.944 16.7547 44.944H28.1905C28.6958 44.944 29.1054 44.5401 29.1054 44.0418V32.7636C29.1054 32.2653 28.6958 31.8613 28.1905 31.8613Z" fill="white"/>
<path d="M11.9509 8.45959L10.0068 6.54229L11.9509 4.625C12.5227 4.06109 12.5227 3.10244 11.9509 2.53853L10.6929 1.29793C10.1212 0.734023 9.14911 0.734023 8.57732 1.29793L6.63322 3.21523L4.68913 1.29793C4.11734 0.734023 3.1453 0.734023 2.5735 1.29793L1.31556 2.53853C0.743771 3.10244 0.743771 4.06109 1.31556 4.625L3.25965 6.54229L1.31556 8.45959C0.743771 9.0235 0.743771 9.98214 1.31556 10.5461L2.5735 11.7867C3.1453 12.3506 4.11734 12.3506 4.68913 11.7867L6.63322 9.86936L8.57732 11.7867C9.14911 12.3506 10.1212 12.3506 10.6929 11.7867L11.9509 10.5461C12.5227 9.98214 12.5227 9.0235 11.9509 8.45959Z" fill="white"/>
<path d="M27.8454 24.5865L25.9013 22.6692L27.8454 20.752C28.4172 20.188 28.4172 19.2294 27.8454 18.6655L26.5875 17.4249C26.0157 16.861 25.0436 16.861 24.4718 17.4249L22.5278 19.3422L20.5837 17.4249C20.0119 16.861 19.0398 16.861 18.468 17.4249L17.2101 18.6655C16.6383 19.2294 16.6383 20.188 17.2101 20.752L19.1542 22.6692L17.2101 24.5865C16.6383 25.1505 16.6383 26.1091 17.2101 26.673L18.468 27.9136C19.0398 28.4775 20.0119 28.4775 20.5837 27.9136L22.5278 25.9963L24.4718 27.9136C25.0436 28.4775 26.0157 28.4775 26.5875 27.9136L27.8454 26.673C28.4172 26.1091 28.4172 25.1505 27.8454 24.5865Z" fill="white"/>
<path d="M43.6853 40.319L41.7412 38.4017L43.6853 36.4844C44.2571 35.9205 44.2571 34.9618 43.6853 34.3979L42.4273 33.1573C41.8555 32.5934 40.8835 32.5934 40.3117 33.1573L38.3676 35.0746L36.4235 33.1573C35.8517 32.5934 34.8797 32.5934 34.3079 33.1573L33.0499 34.3979C32.4781 34.9618 32.4781 35.9205 33.0499 36.4844L34.994 38.4017L33.0499 40.319C32.4781 40.8829 32.4781 41.8415 33.0499 42.4054L34.3079 43.646C34.8797 44.2099 35.8517 44.2099 36.4235 43.646L38.3676 41.7287L40.3117 43.646C40.8835 44.2099 41.8555 44.2099 42.4273 43.646L43.6853 42.4054C44.2571 41.8415 44.2571 40.8829 43.6853 40.319Z" fill="white"/>
</g>
<defs>
<clipPath id="clip0_2809_4253">
<rect width="45" height="45" fill="white"/>
</clipPath>
</defs>
</svg>
