<svg width="31" height="31" viewBox="0 0 31 31" fill="none" xmlns="http://www.w3.org/2000/svg">
<g clip-path="url(#clip0_2809_4173)">
<path d="M31 12.4992C31 9.8208 28.8176 7.626 26.1392 7.626C23.8204 7.626 22.3448 8.9156 20.77 10.2672L19.8648 11.1104L20.6336 10.3044L20.6956 10.2424C22.01 8.742 23.3616 7.1796 23.3616 4.8484C23.3616 2.1824 21.1792 0 18.5132 0H18.4884C17.3848 0 16.3308 0.4092 15.5124 1.1284C14.694 0.3968 13.6276 0 12.524 0H12.4992C9.8208 0 7.6384 2.1824 7.6384 4.8608C7.6384 7.192 8.9404 8.68 10.3168 10.2548L10.354 10.3044L11.1848 11.1848L10.2796 10.3292H10.2672C8.6924 8.9404 7.192 7.6384 4.8608 7.6384C2.1824 7.6384 0 9.8208 0 12.4868C0 13.5904 0.3968 14.6692 1.1284 15.5C0.3968 16.3308 0 17.3972 0 18.5008C0 21.1792 2.1824 23.3616 4.8484 23.3616C7.1796 23.3616 8.6924 22.0472 10.292 20.646L11.2096 19.7904L10.354 20.6956L10.292 20.77C8.9776 22.2704 7.626 23.8204 7.626 26.1516C7.626 28.83 9.8084 31 12.4868 31H12.5116C13.6028 31 14.6692 30.5908 15.4876 29.8716C16.306 30.5908 17.3724 31 18.476 31H18.5008C21.1792 31 23.3616 28.8176 23.3616 26.1392C23.3616 23.808 22.0472 22.2952 20.646 20.708L19.8648 19.8772L20.6956 20.6584L20.77 20.7204C22.3448 22.0844 23.8204 23.3616 26.1392 23.3616C28.8176 23.3616 30.9876 21.1792 30.9876 18.5008C30.9876 17.3972 30.5908 16.3184 29.8592 15.5C30.5908 14.6816 31 13.6028 30.9876 12.4992H31ZM9.4736 4.8608C9.4736 3.1992 10.8376 1.8352 12.4992 1.8352C13.6276 1.8352 14.3592 2.4924 14.7808 3.038C14.9544 3.2612 15.2272 3.3976 15.5124 3.3976C15.7976 3.3976 16.0704 3.2612 16.244 3.038C16.8516 2.2444 17.608 1.8352 18.5132 1.8352C20.1748 1.8352 21.5388 3.1992 21.5388 4.8608C21.5388 6.4976 20.6088 7.5764 19.3068 9.0644L15.5124 13.082L11.7056 9.0396C10.416 7.564 9.486 6.4852 9.486 4.8484L9.4736 4.8608ZM9.052 19.3068C7.626 20.5468 6.51 21.5388 4.8608 21.5388C3.1992 21.5388 1.8352 20.1748 1.8352 18.5132C1.8352 17.608 2.232 16.8392 3.0256 16.2316C3.0876 16.182 3.1496 16.12 3.1992 16.058C3.5092 15.6612 3.4224 15.0784 3.0256 14.7684C2.232 14.1608 1.8352 13.392 1.8352 12.4868C1.8352 10.8252 3.1868 9.4612 4.8608 9.4612C6.4976 9.4612 7.5764 10.4036 9.0644 11.6932L13.0944 15.4876L9.0644 19.2944L9.052 19.3068ZM21.5388 26.1392C21.5388 27.8008 20.1748 29.1648 18.5132 29.1648C17.3848 29.1648 16.6532 28.52 16.2316 27.9744C16.1448 27.8628 16.0208 27.7636 15.8968 27.7016V27.6148H15.5124C15.2272 27.6148 14.9544 27.7512 14.7808 27.9744C14.1732 28.768 13.4044 29.1648 12.4992 29.1648C10.8376 29.1648 9.4736 27.8008 9.4736 26.1392C9.4736 24.5024 10.4036 23.4236 11.7056 21.9356L15.5124 17.918L19.3192 21.9356C20.6088 23.4112 21.5512 24.49 21.5512 26.1392H21.5388ZM27.6272 15.624C27.6644 15.872 27.7884 16.0828 27.9744 16.2316C28.768 16.8392 29.1648 17.608 29.1648 18.5132C29.1648 20.1748 27.8008 21.5388 26.1392 21.5388C24.5148 21.5388 23.4484 20.6212 21.9728 19.344L17.9056 15.5L21.9108 11.718L21.9728 11.6684C23.436 10.3912 24.5024 9.4736 26.1268 9.4736C27.8008 9.4736 29.1524 10.8376 29.1524 12.4992C29.1524 13.6276 28.5076 14.3592 27.962 14.7684C27.9 14.818 27.838 14.88 27.7884 14.942C27.6396 15.1404 27.5776 15.376 27.6148 15.624H27.6272Z" fill="white"/>
</g>
<defs>
<clipPath id="clip0_2809_4173">
<rect width="31" height="31" fill="white"/>
</clipPath>
</defs>
</svg>
